<svg id="Layer_1" data-name="Layer 1" xmlns="http://www.w3.org/2000/svg" viewBox="0 0 947.86 801.49"><defs><style>.cls-1,.cls-2{fill:#231f20;}.cls-2{stroke:#231f20;stroke-linecap:square;stroke-miterlimit:10;stroke-width:11.13px;}</style></defs><path class="cls-1" d="M428.45,747.39c-.53,0-1.07,0-1.6,0s-1.07,0-1.6,0Z" transform="translate(-26.07 -99.22)"/><path class="cls-1" d="M434,895.14c-2.36.05-4.76.07-7.14.07s-4.79,0-7.15-.07Z" transform="translate(-26.07 -99.22)"/><path class="cls-1" d="M428.45,747.39c-.53,0-1.07,0-1.6,0s-1.07,0-1.6,0Z" transform="translate(-26.07 -99.22)"/><path class="cls-2" d="M674.11,895.14H419.7a395,395,0,0,1-83.06-10.28c-174.82-40.81-305-197.64-305-384.86,0-218.28,176.93-395.21,395.21-395.21S822.06,281.72,822.06,500q0,3.54-.07,7H674.18c.08-2.33.11-4.67.11-7,0-136.66-110.8-247.44-247.44-247.44S179.41,363.34,179.41,500c0,2.36,0,4.7.11,7,3.7,132.86,112.16,239.54,245.73,240.36.53,0,1.06,0,1.6,0s1.07,0,1.6,0H674.11" transform="translate(-26.07 -99.22)"/><path class="cls-1" d="M336.64,884.86a395,395,0,0,0,83.06,10.28" transform="translate(-26.07 -99.22)"/><path class="cls-1" d="M428.45,747.39c-.53,0-1.07,0-1.6,0s-1.07,0-1.6,0Z" transform="translate(-26.07 -99.22)"/><rect class="cls-2" x="794.96" y="648.17" width="147.33" height="147.33"/><line class="cls-2" x1="795.99" y1="407.81" x2="795.92" y2="407.81"/><line class="cls-2" x1="648.04" y1="795.92" x2="648.04" y2="648.17"/><line class="cls-2" x1="795.37" y1="795.92" x2="795.37" y2="795.5"/></svg>