<svg id="Layer_1" data-name="Layer 1" xmlns="http://www.w3.org/2000/svg" viewBox="0 0 961.73 949.73"><defs><style>.cls-1{fill:#ff1e3a;}.cls-2{fill:#fff;}.cls-3{fill:#ff735d;}</style></defs><path class="cls-1" d="M80.51,686.33,98.4,721.94s82.88-38,124.57-42.7a335.07,335.07,0,0,0,99.72,98.26c-.9,9.29-5.45,48.66-20.71,85.88l36.82,15.23s18.42-46.69,43.57-71A318.86,318.86,0,0,0,515,829.83c9.13,25.24,29.8,85.87,31.07,121.7l39.82-1.29s.29-97.19,14.82-134.75a336.89,336.89,0,0,0,123.87-69.06c12.85,7.13,42.08,24.65,66.87,49l28-28.35S782,731.26,769.52,698.33a333.08,333.08,0,0,0,51.81-98c25.38-1.75,92.34-5.22,128,3.73l9.8-38.62s-86.74-25.35-121.63-49A332.93,332.93,0,0,0,831.4,427c12.68-7.54,42.48-23.95,75.92-33.1l-10.41-38.47S846.4,370,811.65,363.84a336.74,336.74,0,0,0-59.39-93.65c7.55-15.64,42.11-85.56,70.55-114.73l-28.45-27.9s-76.14,72.28-111.86,83.86a333.71,333.71,0,0,0-78.73-36.52c-.09-1.49-2.69-45.34,8.31-88.62L574,76.47s-14.74,58.62-39,84.45A332.51,332.51,0,0,0,436.36,166c-.33-.47-53.55-75.87-66.15-119.38L332.37,57.45s25.93,104.32,17.15,139a337.77,337.77,0,0,0-63.94,43c-5.34-2.72-43.73-22.78-73.86-52.36l-27.66,28s43.33,41.54,52.56,75.68a332.62,332.62,0,0,0-49.41,90.47c-12,.9-96.08,6.78-137-3.46L40.56,415.9s101.41,29.56,128,54.45a332.87,332.87,0,0,0,16.14,129.93C174.13,611,117.62,667.54,80.51,686.33ZM595,172.34l-1.25-.36Z" transform="translate(-19.13 -25.13)"/><path class="cls-2" d="M258.27,512.65c13.94-3.72,17.67-31.74,30-67.93,1.28-4.56,3.38-9.2,5-14,1.76-4.79,4-9.64,5.93-14.63,4.58-9.84,9.32-20.13,15.44-30.2a213,213,0,0,1,109.86-94.45c10.88-4.54,21.77-7.68,32.18-10.73,5.23-1.2,10.36-2.65,15.36-3.67s9.89-2.25,14.59-2.84c37.63-6.77,65.89-6.26,71.66-19.48,1.34-3.19,1.05-6.91-1-11.15a43.71,43.71,0,0,0-11.26-13.95c-11-9.91-29.68-19.93-55-26.2-6.31-1.79-13-2.63-20.08-3.78-7.06-1-14.47-1.36-22.2-1.74a227.48,227.48,0,0,0-49.29,4.54c-17.16,3.71-35.16,9-52.69,17.58a223.62,223.62,0,0,0-91.19,78.4c-11.11,16-19,33-25.28,49.44a227.5,227.5,0,0,0-11.88,48c-.79,7.7-1.53,15.08-1.61,22.21.08,7.16-.11,13.92.72,20.42,2.4,25.93,9.51,45.89,17.66,58.27A43.6,43.6,0,0,0,247.39,510C251.28,512.65,254.92,513.5,258.27,512.65Z" transform="translate(-19.13 -25.13)"/><path class="cls-1" d="M788.71,106.06c-5.12,5.08,3.42,22,19.08,37.77a110.67,110.67,0,0,0,15.79,13.3c9.92,6.76,18.45,9.42,21.84,6.05,5.12-5.08-3.42-22-19.08-37.77S793.83,101,788.71,106.06Z" transform="translate(-19.13 -25.13)"/><path d="M822.14,156.15s-18.64-13.82-27.78-28.59c-5.39,5-11.57,10.76-17.93,16.4,0,0,26.28,17.54,39.9,18.7Z" transform="translate(-19.13 -25.13)"/><path class="cls-1" d="M902.92,334c-7,1.79-8.18,20.7-2.66,42.23a109.62,109.62,0,0,0,6.88,19.47c5.13,10.85,11.14,17.46,15.77,16.27,7-1.79,8.18-20.7,2.66-42.23S909.91,332.24,902.92,334Z" transform="translate(-19.13 -25.13)"/><path d="M906.39,394.15s-10.57-20.42-9.48-38.72c-7.15,2-15,3.84-23.38,5.48,0,0,13.4,27.82,24.56,35.72Z" transform="translate(-19.13 -25.13)"/><path class="cls-1" d="M974.92,549.76c-7-1.87-17.29,14-23,35.49a110.21,110.21,0,0,0-3.56,20.34c-.85,12,1.15,20.68,5.76,21.91,7,1.87,17.29-14,23-35.49S981.89,551.63,974.92,549.76Z" transform="translate(-19.13 -25.13)"/><path d="M948.45,603.85s2.56-23.06,10.73-38.39c-7.06-2.13-15.12-4.59-23.2-7.25,0,0-1.93,31.54,3.91,43.89Z" transform="translate(-19.13 -25.13)"/><path class="cls-1" d="M841,761.52c-5.06-5.14-22,3.33-37.84,18.93a110.07,110.07,0,0,0-13.36,15.75c-6.79,9.89-9.48,18.41-6.13,21.81,5.06,5.14,22-3.34,37.83-18.94S846,766.65,841,761.52Z" transform="translate(-19.13 -25.13)"/><path d="M790.74,794.76s12.32-19.41,28.69-27.68c-5.36-5.15-10.88-11.06-16.5-17.44,0,0-17.3,25.58-18.51,39.19Z" transform="translate(-19.13 -25.13)"/><path class="cls-1" d="M605.31,961c-.14-7.21-18.26-12.72-40.49-12.29a109.67,109.67,0,0,0-20.53,2.22c-11.73,2.5-19.55,6.83-19.46,11.6.14,7.22,18.27,12.73,40.49,12.3S605.45,968.23,605.31,961Z" transform="translate(-19.13 -25.13)"/><path d="M546,950.58s22.86-3.93,39.86-.34c.09-7.37.21-15.79.53-24.29,0,0-30.83,6.88-41.08,15.92Z" transform="translate(-19.13 -25.13)"/><path class="cls-1" d="M352.08,896.44c2.85-6.63-11.4-19.12-31.82-27.88a109.32,109.32,0,0,0-19.63-6.43c-11.72-2.56-20.62-1.83-22.51,2.56-2.85,6.63,11.4,19.11,31.83,27.88S349.24,903.07,352.08,896.44Z" transform="translate(-19.13 -25.13)"/><path d="M302.34,862.5s22.63,4.08,36.46,16.11c2.75-6.91,6.13-14.25,9.92-21.86,0,0-30.21-6.36-43.28-2.34Z" transform="translate(-19.13 -25.13)"/><path class="cls-1" d="M96.79,744.11c6.49-3.16,3.88-21.92-5.84-41.91a109.23,109.23,0,0,0-10.64-17.7c-7.2-9.6-14.4-14.88-18.7-12.79-6.49,3.16-3.88,21.92,5.84,41.91S90.3,747.26,96.79,744.11Z" transform="translate(-19.13 -25.13)"/><path d="M81.36,685.9s13.16,19.1,17,36c6.73-3,14.42-6.44,22.27-9.72,0,0-19.19-25.1-31.7-30.61Z" transform="translate(-19.13 -25.13)"/><path d="M631.85,574.64c-6,25.3,3,49.06,20,53.08s35.65-13.23,41.62-38.52-3-49.06-20-53.08S637.82,549.35,631.85,574.64Z" transform="translate(-19.13 -25.13)"/><path class="cls-3" d="M649.54,551.45c-6,25.3,3,49.06,20,53.08S705.18,591.3,711.15,566s-3-49.06-20-53.08S655.51,526.16,649.54,551.45Z" transform="translate(-19.13 -25.13)"/><path d="M706.44,314.43c-19.55-17.12-44.74-20.34-56.26-7.18s-5,37.69,14.55,54.81,44.73,20.34,56.25,7.19S726,331.55,706.44,314.43Z" transform="translate(-19.13 -25.13)"/><path class="cls-3" d="M725.66,293.59c-19.55-17.13-44.74-20.34-56.25-7.19s-5,37.7,14.54,54.82,44.74,20.34,56.26,7.18S745.22,310.71,725.66,293.59Z" transform="translate(-19.13 -25.13)"/><path d="M508.73,690.86a31,31,0,1,0,37.27-23A31,31,0,0,0,508.73,690.86Z" transform="translate(-19.13 -25.13)"/><path class="cls-3" d="M512.55,674.71a31,31,0,1,0,37.26-23A31,31,0,0,0,512.55,674.71Z" transform="translate(-19.13 -25.13)"/><path class="cls-2" d="M512.55,674.71a31,31,0,1,0,37.26-23A31,31,0,0,0,512.55,674.71Z" transform="translate(-19.13 -25.13)"/><path d="M371.86,375.64a38.09,38.09,0,1,0,14.52-51.88A38.09,38.09,0,0,0,371.86,375.64Z" transform="translate(-19.13 -25.13)"/><path class="cls-3" d="M361.85,357.86A38.09,38.09,0,1,0,376.38,306,38.11,38.11,0,0,0,361.85,357.86Z" transform="translate(-19.13 -25.13)"/><path d="M348.2,684.34a22.72,22.72,0,1,0,27.33-16.88A22.72,22.72,0,0,0,348.2,684.34Z" transform="translate(-19.13 -25.13)"/><path class="cls-3" d="M351,672.5a22.71,22.71,0,1,0,27.33-16.88A22.71,22.71,0,0,0,351,672.5Z" transform="translate(-19.13 -25.13)"/><path class="cls-1" d="M25,431.41c6.88,1.84,17.07-13.86,22.74-35.07a108.85,108.85,0,0,0,3.51-20.09c.83-11.83-1.14-20.43-5.7-21.65-6.89-1.84-17.07,13.86-22.75,35.07S18.13,429.57,25,431.41Z" transform="translate(-19.13 -25.13)"/><path d="M51.14,378s-2.52,22.77-10.58,37.93c7,2.1,14.93,4.52,22.91,7.15,0,0,1.9-31.16-3.88-43.36Z" transform="translate(-19.13 -25.13)"/><path class="cls-1" d="M162.8,220.56c5,5.07,21.74-3.31,37.37-18.73a107.54,107.54,0,0,0,13.2-15.56c6.71-9.77,9.36-18.19,6-21.55-5-5.07-21.74,3.31-37.37,18.73S157.8,215.48,162.8,220.56Z" transform="translate(-19.13 -25.13)"/><path d="M212.39,187.69s-12.16,19.19-28.33,27.36c5.3,5.09,10.75,10.91,16.31,17.22,0,0,17.08-25.27,18.27-38.72Z" transform="translate(-19.13 -25.13)"/><path class="cls-1" d="M311.14,51.82c1.87,6.88,20.56,7.78,41.75,2A108.68,108.68,0,0,0,372,46.76C382.66,41.53,389.1,35.5,387.86,31c-1.87-6.88-20.56-7.78-41.75-2S309.27,44.94,311.14,51.82Z" transform="translate(-19.13 -25.13)"/><path d="M370.47,47.52s-21,9.28-38.1,9.93c1.69,7.08,3.6,15.18,5.35,23.4,0,0,27.88-14,35.52-25.16Z" transform="translate(-19.13 -25.13)"/><path class="cls-1" d="M558.51,60.87c-1.87,6.87,13.79,17.12,35,22.87a108.3,108.3,0,0,0,20.08,3.58c11.83.88,20.43-1.06,21.67-5.61,1.87-6.88-13.79-17.13-35-22.88S560.38,54,558.51,60.87Z" transform="translate(-19.13 -25.13)"/><path d="M611.85,87.19s-22.7-.86-37.89-10.72c-1.73,7.14-4,14.78-6.68,22.75,0,0,30.43,2,42.65-3.68Z" transform="translate(-19.13 -25.13)"/><path d="M285.92,587.22c6.55,25.15,25.58,42,42.5,37.55s25.32-28.38,18.76-53.52-25.58-42-42.5-37.55S279.36,562.07,285.92,587.22Z" transform="translate(-19.13 -25.13)"/><path class="cls-3" d="M275.66,571.71c6.55,25.15,25.58,42,42.5,37.55s25.32-28.37,18.76-53.52-25.58-42-42.5-37.55S269.1,546.57,275.66,571.71Z" transform="translate(-19.13 -25.13)"/><path d="M459.45,474.11a47.06,47.06,0,1,0,56.61-35A47.07,47.07,0,0,0,459.45,474.11Z" transform="translate(-19.13 -25.13)"/><path class="cls-3" d="M465.74,447.5a47.05,47.05,0,1,0,56.61-35A47.05,47.05,0,0,0,465.74,447.5Z" transform="translate(-19.13 -25.13)"/><path d="M281.61,696.69c-2.82,2.94-.14,11.15,8.37,23s23.26,27,44.45,42.19A287.51,287.51,0,0,0,371,784a312.4,312.4,0,0,0,312-19.18,287.18,287.18,0,0,0,33.6-26.4c19.16-17.72,32-34.49,38.95-47.31s8.64-21.31,5.48-23.88c-6.9-5.65-30.06,14-69.87,36.84-9.91,5.76-21,11.45-33,17.21-12.15,5.44-25.09,11.11-39.13,15.8a342.47,342.47,0,0,1-187.9,11.55,421.34,421.34,0,0,1-40.77-10.89c-12.58-4.25-24.32-8.53-34.87-13C313.16,706.92,287.76,690.23,281.61,696.69Z" transform="translate(-19.13 -25.13)"/><path d="M792.63,552.8c-16.06-4.59-32.6,4-37,19.28s5.12,31.31,21.18,35.9,32.59-4.05,36.95-19.29S808.68,557.38,792.63,552.8Z" transform="translate(-19.13 -25.13)"/><path class="cls-2" d="M649.54,551.45c-6,25.3,3,49.06,20,53.08S705.18,591.3,711.15,566s-3-49.06-20-53.08S655.51,526.16,649.54,551.45Z" transform="translate(-19.13 -25.13)"/><path class="cls-2" d="M725.66,293.59c-19.55-17.13-44.74-20.34-56.25-7.19s-5,37.7,14.54,54.82,44.74,20.34,56.26,7.18S745.22,310.71,725.66,293.59Z" transform="translate(-19.13 -25.13)"/><path class="cls-2" d="M361.85,357.86A38.09,38.09,0,1,0,376.38,306,38.11,38.11,0,0,0,361.85,357.86Z" transform="translate(-19.13 -25.13)"/><path class="cls-2" d="M351,672.5a22.71,22.71,0,1,0,27.33-16.88A22.71,22.71,0,0,0,351,672.5Z" transform="translate(-19.13 -25.13)"/><path class="cls-2" d="M275.66,571.71c6.55,25.15,25.58,42,42.5,37.55s25.32-28.37,18.76-53.52-25.58-42-42.5-37.55S269.1,546.57,275.66,571.71Z" transform="translate(-19.13 -25.13)"/><path class="cls-2" d="M465.74,447.5a47.05,47.05,0,1,0,56.61-35A47.05,47.05,0,0,0,465.74,447.5Z" transform="translate(-19.13 -25.13)"/></svg>